<?xml version="1.0" standalone="no"?>
<!DOCTYPE svg PUBLIC "-//W3C//DTD SVG 20010904//EN"
 "http://www.w3.org/TR/2001/REC-SVG-20010904/DTD/svg10.dtd">
<svg version="1.0" xmlns="http://www.w3.org/2000/svg"
 width="607.000000pt" height="523.000000pt" viewBox="0 0 607.000000 523.000000"
 preserveAspectRatio="xMidYMid meet">

<g transform="translate(0.000000,523.000000) scale(0.100000,-0.100000)"
fill="#000000" stroke="none">
<path d="M1455 4871 c-33 -15 -127 -67 -209 -115 -82 -47 -151 -86 -152 -86
-2 0 -45 -25 -96 -56 -51 -31 -199 -117 -328 -191 -129 -74 -266 -156 -305
-181 l-70 -47 -3 -717 -2 -717 58 -40 c33 -22 81 -52 108 -67 27 -14 166 -94
309 -177 143 -83 305 -176 360 -208 55 -32 121 -74 148 -93 l47 -36 1 -163 c0
-89 4 -349 8 -577 9 -447 12 -472 63 -503 12 -8 264 -153 558 -322 294 -170
546 -317 559 -327 51 -39 61 -35 451 190 129 74 287 165 350 202 178 105 285
160 309 160 38 0 124 -47 711 -388 91 -53 204 -117 252 -141 l87 -46 55 27
c49 24 275 152 701 398 318 184 431 252 455 276 l25 24 0 704 c0 684 -1 705
-19 725 -24 26 -34 33 -501 301 -203 118 -396 231 -428 252 -99 67 -91 12 -97
671 l-5 579 -38 32 c-36 30 -111 77 -267 166 -41 23 -192 110 -335 193 -566
328 -544 317 -594 317 -41 0 -79 -20 -376 -191 -471 -272 -637 -366 -661 -373
-15 -5 -120 51 -390 205 -395 225 -627 353 -659 363 -12 3 -44 -5 -80 -23z
m145 -449 c83 -43 450 -256 498 -289 28 -19 52 -41 52 -47 0 -23 -44 -51 -311
-204 -330 -189 -308 -185 -490 -81 -370 212 -439 257 -439 289 0 24 -1 23 205
142 99 58 200 117 224 133 119 75 196 91 261 57z m2171 -39 c46 -28 104 -62
129 -76 163 -91 491 -283 519 -304 58 -44 63 -70 68 -353 5 -283 -2 -387 -29
-404 -22 -13 -68 9 -343 169 -374 218 -447 257 -483 262 -44 6 -54 1 -392
-196 -135 -79 -317 -184 -405 -234 -88 -49 -194 -111 -235 -137 -75 -47 -124
-75 -645 -373 -154 -87 -306 -175 -338 -194 -92 -55 -107 -50 -507 183 -129
75 -256 148 -282 162 -25 13 -68 41 -95 61 l-48 37 -6 94 c-9 122 -9 418 0
540 5 73 9 95 21 98 8 1 109 -52 225 -119 454 -262 574 -329 592 -329 32 0
109 42 563 305 245 142 513 298 595 345 83 48 269 156 415 241 146 84 307 177
359 205 52 29 99 58 105 64 7 7 35 10 72 8 53 -3 73 -11 145 -55z m161 -1308
c150 -86 281 -164 291 -173 9 -8 17 -23 17 -32 0 -39 -558 -360 -626 -360 -33
0 -254 121 -516 282 -114 69 -121 85 -55 124 91 55 215 127 276 161 36 20 112
65 170 100 85 50 112 62 138 59 17 -3 154 -75 305 -161z m-1106 -576 c300
-171 374 -218 374 -234 0 -15 -98 -80 -324 -212 -207 -123 -269 -153 -308
-153 -31 0 -267 128 -509 277 -116 70 -119 76 -83 114 16 17 56 45 89 63 33
17 150 84 260 147 216 125 220 127 251 128 11 1 124 -58 250 -130z m1903 110
c25 -11 81 -42 125 -69 45 -26 191 -111 326 -188 135 -77 269 -159 299 -183
l54 -42 -5 -344 c-4 -288 -7 -347 -20 -359 -13 -14 -25 -10 -104 32 -49 26
-132 72 -184 104 -235 140 -453 263 -499 280 -73 28 -52 38 -516 -230 -126
-73 -266 -155 -310 -181 -44 -27 -177 -105 -295 -172 -118 -68 -372 -215 -565
-327 -192 -111 -374 -214 -403 -228 -52 -24 -54 -24 -97 -7 -24 9 -147 75
-272 147 -125 72 -265 152 -311 177 -117 66 -211 136 -223 168 -13 35 -23 545
-12 633 7 57 11 65 31 68 27 4 32 1 634 -347 59 -34 128 -69 153 -77 44 -16
46 -15 108 13 34 17 123 65 197 108 74 44 196 113 270 156 74 42 196 112 270
156 75 44 257 150 405 235 149 86 403 233 565 327 162 94 304 171 315 171 11
0 40 -9 64 -21z m238 -1349 c315 -181 345 -202 328 -230 -12 -20 -506 -300
-592 -336 -33 -14 -38 -13 -97 14 -34 16 -154 82 -267 147 -112 65 -221 128
-242 139 -42 24 -55 50 -36 72 7 8 42 32 78 54 36 21 145 84 241 141 252 148
259 151 302 146 22 -3 130 -58 285 -147z"/>
</g>
</svg>
